# xmcd
#
# Track frame offsets:
#	150
#	12450
#	21500
#	31600
#	40900
#	52662
#	63737
#	76450
#	85000
#	95712
#	104687
#	116950
#
# Disc length: 1687 seconds
#
# Revision: 2
# Processed by: cddbd v1.4PL0 Copyright (c) Steve Scherf et al.
# Submitted via: MusicWizard 6.0.0
#
DISCID=9b06950c
DTITLE=Johnny Cash - Johnny Cash
DYEAR=1991
DGENRE=Country
TTITLE0=I Walk The Line
TTITLE1=Two-Timin' Woman
TTITLE2=Get Rhythm
TTITLE3=Luther's Boogie
TTITLE4=So Doggone Lonesome
TTITLE5=Oh, Lonesome Me
TTITLE6=Folsom Prison Blues
TTITLE7=I Forgot To Remember To Forget
TTITLE8=I Heard That Lonesome Whistle
TTITLE9=Blue Train
TTITLE10=Goodnight Irene
TTITLE11=Rock Island Line
EXTD=(c)1991 Bellaphon Germany\nRe-release of Bellaphon/SUN LP\nupc 4003099916821\n
EXTT0=
EXTT1=
EXTT2=
EXTT3=
EXTT4=
EXTT5=
EXTT6=
EXTT7=
EXTT8=
EXTT9=
EXTT10=
EXTT11=
PLAYORDER=
